<?xml version="1.0" encoding="utf-8"?>
<!-- Generator: Assembly By: ShinCurry -->

<svg version="1.1" id="moon-cat" xmlns="http://www.w3.org/2000/svg" xmlns:xlink="http://www.w3.org/1999/xlink" x="0px" y="0px"
	 viewBox="-248.5 446 114 112.5" style="enable-background:new -248.5 446 114 112.5;" xml:space="preserve">
<style type="text/css">
	.st0{fill:#FFFEDC;}
	.st1{fill:#FFFE9B;}
</style>
<path id="cat" class="st0" d="M-185,542.5c-0.6-0.6-1.8-2.6-0.5-4.5c0.2,0.1,0.5,0.1,0.8-0.1c0.4-0.2,0.5-0.6,0.4-0.8
	c-0.1-0.3-0.6-0.3-0.9,0c-0.1,0.1-0.3,0.2-0.3,0.3c-2,2.2-0.5,4.7,0.3,5.4c1.4,1.4,1.4,3.3,0.5,4.2c-0.9,0.9-2.1,0.7-3,0.2
	c0.4-0.5,0.6-1.2,0.6-1.9c0-2-1.3-5.8-2.2-8.3c0.6-0.3,1.1-0.7,1.4-1.3l0.9,0.9l0.1-0.1l-0.9-0.9c0-0.1,0-0.1,0.1-0.1l1.5,0.6
	l0.1-0.1l-1.5-0.6c0-0.1,0-0.1,0.1-0.2h1.8v-0.1h-1.8c0-0.2,0.1-0.4,0.1-0.6c0-0.8-0.3-1.5-0.8-2c-0.1-0.5-0.4-1.9-0.4-2.5
	c-0.2,0.7-0.5,1.3-0.7,1.8c-0.3-0.1-0.6-0.2-1-0.2c-0.4,0-0.7,0.1-1.1,0.2c-0.2-0.4-0.6-1-0.8-1.8c0,0.6-0.4,2.3-0.4,2.6
	c-0.4,0.5-0.6,1.1-0.6,1.8c0,0.2,0,0.4,0.1,0.6h-1.6v0.1h1.7c0,0.1,0,0.1,0.1,0.2l-1.4,0.6l0.1,0.1l1.3-0.6c0,0.1,0.1,0.1,0.1,0.2
	l-0.8,0.8l0.1,0.1l0.8-0.8c0.3,0.6,0.8,1,1.4,1.2c-0.9,2.7-2.2,6.4-2.3,8.1v0c0,0.1,0,0.1,0,0.2c0,1.2,0.6,2.2,1.6,2.8
	c-0.3,0.1-0.5,0.4-0.4,0.5c0.1,0.3,0.5,0.3,1.1,0.2c0.3-0.1,0.5-0.1,0.6-0.3c0.2,0,0.4,0.1,0.6,0.1c0.2,0,0.4,0,0.6-0.1
	c0.2,0.1,0.4,0.2,0.7,0.3c0.5,0.1,1,0,1.1-0.3c0-0.2-0.2-0.4-0.5-0.5c0.2-0.1,0.4-0.3,0.6-0.6c0.6,0.3,1.2,0.5,1.8,0.5
	c0.6,0,1.3-0.2,1.8-0.7C-183.5,546.2-183.4,544.1-185,542.5z"/>
<path id="moon" class="st1" d="M-185.3,547.4c-25.7,0-46.5-20.8-46.5-46.6c0-25.9,20.8-46.5,46.5-46.5c13.9,0,26.4,6.1,34.9,15.7
	c-9-11.6-23.3-19-39.1-19c-27.6,0-50.1,22.4-50.1,50c0,27.6,22.4,50,50,50c15.8,0,30-7.5,39.2-19
	C-158.9,541.3-171.3,547.4-185.3,547.4z"/>
</svg>
